<svg width="123" height="59" viewBox="0 0 123 59" xmlns="http://www.w3.org/2000/svg"><g fill-rule="nonzero" fill="#1C453B"><path d="M36.775 21.757h-.058.058c2.81-1.143 5.048-3.657 5.564-6.628.689-3.943-1.95-7.143-5.851-7.143H15.949l-1.262 7.143h3.327l-2.467 13.885H12.22l-1.262 7.143h21.284c4.074 0 7.975-3.257 8.663-7.314.574-3.372-1.205-6.229-4.13-7.086zm-9.581-6.628h5.163c.287 0 .459.228.402.457l-.574 3.143c-.058.285-.287.457-.574.457h-5.163l.746-4.057zm3.5 13.428c-.058.286-.288.457-.574.457h-5.393l.86-4.685h5.393c.287 0 .459.228.402.457l-.689 3.771zM44.52 7.986h26.275l-1.72 9.6h-6.599l.402-2.457h-2.295l-2.467 13.828h4.705L61.559 36.1H43.946l1.262-7.143h4.475L52.15 15.13h-2.295l-.402 2.457h-6.655l1.722-9.6z"/><path d="M120.937 34.043h-7.63l-.86-7.314-3.902 7.314h-8.032l5.336 4.514-2.008 3.714H10.843c-1.664 0-3.385.115-4.647-1.142-1.205-1.2-.86-3.429-.631-5.143L11.53 2.1h89.728c1.664 0 3.098.629 4.13 1.829 1.033 1.2 1.435 2.8 1.148 4.457l-4.245 24.343h5.45l4.59-8.572 2.925-16.628c.345-2-.172-3.886-1.377-5.315-1.204-1.371-2.925-2.171-4.933-2.171H9.122L2.237 38.157c-.344 2.057.173 3.943 1.377 5.372 1.148 1.371 2.926 2.114 4.877 2.114h94.087l6.598-4.114 5.622 4.742-.918-7.657 7.057-4.571z"/><path d="M100.628 15.129h-2.754L94.145 36.1H87.49c-1.09 0-1.95-.571-2.352-1.429L80.49 21.643l-1.32 7.314h2.697L80.606 36.1H67.18l1.262-7.143h3.27L74.18 15.13h-3.27l1.262-7.143h9.925c1.09 0 1.95.571 2.352 1.428l4.59 13.2 1.32-7.543h-2.697l1.262-7.142h12.851l-1.147 7.2zM.631 56.671h.631l.803-4.571h-.63l.229-1.314h5.622l.803 1.028-.287 1.715-.975.8.689.857-.345 1.828-1.204 1.029H.287L.63 56.67zm4.418-.057l.286-.228.23-1.143-.172-.229H3.614l-.287 1.6H5.05zm.573-2.971l.287-.229.172-.971-.23-.286H4.074l-.287 1.486h1.836zm3.156 3.028h.746l.803-4.571h-.689l.23-1.314h3.442l-.287 1.314h-.688l-.86 4.571h.745l-.23 1.315H8.548l.23-1.315zm4.934.229l.917-5.029 1.32-1.085h4.073l.86 1.028-.229 1.257h-2.008l.115-.628-.172-.229h-1.664l-.401.4-.689 3.657.287.343h1.664l.287-.228.172-1.029h-1.492l.287-1.428h3.442l-.516 3.028-1.262 1.029h-4.074l-.917-1.086zm10.843-.229h.918l.803-4.571h-.746l-.23 1.314h-1.549l.46-2.628h6.654l-.516 2.628h-1.492l.23-1.314h-.803l-.804 4.571h.976l-.287 1.315h-3.844l.23-1.315zm6.597 0h.631l.803-4.571h-.63l.229-1.314h6.139l-.402 2.114h-1.664l.115-.8h-1.779l-.286 1.486h2.753l-.23 1.485h-2.753l-.287 1.6h1.779l.172-.857h1.664l-.345 2.172h-6.138l.23-1.315zm7.516 0h.63l.861-4.571h-.688l.287-1.314h2.639l1.549 4.228.516-2.914h-.688l.23-1.314h3.04l-.23 1.314h-.63l-1.033 5.886h-2.008l-1.55-4.286-.516 2.971h.689l-.287 1.315h-3.04l.229-1.315zm10.67 0h.632l.803-4.571h-.631l.23-1.314h2.638l1.607 4.228.516-2.914h-.746l.23-1.314h3.04l-.23 1.314h-.573l-1.09 5.886h-2.008L52.207 53.7l-.516 2.971h.688l-.23 1.315h-3.04l.23-1.315zm8.606 0h.689l.803-4.571h-.631l.23-1.314h6.08l-.344 2.114h-1.72l.171-.8h-1.778l-.287 1.486h2.754l-.287 1.485H60.87l-.287 1.6h1.836l.172-.857h1.664l-.402 2.172h-6.138l.23-1.315zm8.893 0h.975l.803-4.571h-.803l-.23 1.314h-1.491l.459-2.628h6.597l-.459 2.628h-1.491l.23-1.314h-.804l-.803 4.571h.918l-.23 1.315h-3.9l.229-1.315zm7.687-4.571h-.459l.23-1.314h3.04l-.229 1.314h-.746l-.23 4.171 2.18-5.485h2.296l.23 5.485 1.319-4.171h-.746l.23-1.314h2.753l-.23 1.314h-.458l-2.066 5.886h-2.352l-.172-5.543-2.123 5.543h-2.467V52.1zm10.04 4.8l.918-5.029 1.32-1.085h3.958l.918 1.085-.918 5.029-1.32 1.086h-3.958l-.918-1.086zm3.901-.343l.402-.343.631-3.6-.287-.343H87.72l-.402.343-.631 3.6.287.343h1.491zm3.844.114h.631l.803-4.571h-.63l.229-1.314h5.622l.86 1.028-.344 1.943-.86.743.574.743-.287 1.543h.459l-.23 1.314h-1.778l-.517-.629.345-1.885-.23-.286h-1.72l-.288 1.486h.689l-.23 1.314H92.08l.23-1.429zm4.877-2.8l.344-.285.23-1.143-.23-.286h-1.721l-.344 1.772h1.72v-.058zm7.228 2.8h.804l-.402-1.885-1.32 1.371-.057.514h.516l-.23 1.315h-3.154l.229-1.315h.631l.803-4.571h-.63l.229-1.314h3.212l-.23 1.314h-.573l-.401 2.171 1.893-2.171h-.574l.23-1.314h3.327l-.23 1.314h-.688l-1.434 1.543.803 3.028h.631l-.23 1.315h-3.384l.23-1.315z"/><path d="M.631 56.671h.631l.803-4.571h-.63l.229-1.314h5.622l.803 1.028-.287 1.715-.975.8.689.857-.345 1.828-1.204 1.029H.287L.63 56.67zm4.418-.057l.286-.228.23-1.143-.172-.229H3.614l-.287 1.6H5.05zm.573-2.971l.287-.229.172-.971-.23-.286H4.074l-.287 1.486h1.836zm3.156 3.028h.746l.803-4.571h-.689l.23-1.314h3.442l-.287 1.314h-.688l-.86 4.571h.745l-.23 1.315H8.548l.23-1.315zm4.934.229l.917-5.029 1.32-1.085h4.073l.86 1.028-.229 1.257h-2.008l.115-.628-.172-.229h-1.664l-.401.4-.689 3.657.287.343h1.664l.287-.228.172-1.029h-1.492l.287-1.428h3.442l-.516 3.028-1.262 1.029h-4.074l-.917-1.086zm10.843-.229h.918l.803-4.571h-.746l-.23 1.314h-1.549l.46-2.628h6.654l-.516 2.628h-1.492l.23-1.314h-.803l-.804 4.571h.976l-.287 1.315h-3.844l.23-1.315zm6.597 0h.631l.803-4.571h-.63l.229-1.314h6.139l-.402 2.114h-1.664l.115-.8h-1.779l-.286 1.486h2.753l-.23 1.485h-2.753l-.287 1.6h1.779l.172-.857h1.664l-.345 2.172h-6.138l.23-1.315zm7.516 0h.63l.861-4.571h-.688l.287-1.314h2.639l1.549 4.228.516-2.914h-.688l.23-1.314h3.04l-.23 1.314h-.63l-1.033 5.886h-2.008l-1.55-4.286-.516 2.971h.689l-.287 1.315h-3.04l.229-1.315zm10.67 0h.632l.803-4.571h-.631l.23-1.314h2.638l1.607 4.228.516-2.914h-.746l.23-1.314h3.04l-.23 1.314h-.573l-1.09 5.886h-2.008L52.207 53.7l-.516 2.971h.688l-.23 1.315h-3.04l.23-1.315zm8.606 0h.689l.803-4.571h-.631l.23-1.314h6.08l-.344 2.114h-1.72l.171-.8h-1.778l-.287 1.486h2.754l-.287 1.485H60.87l-.287 1.6h1.836l.172-.857h1.664l-.402 2.172h-6.138l.23-1.315zm8.893 0h.975l.803-4.571h-.803l-.23 1.314h-1.491l.459-2.628h6.597l-.459 2.628h-1.491l.23-1.314h-.804l-.803 4.571h.918l-.23 1.315h-3.9l.229-1.315zm7.687-4.571h-.459l.23-1.314h3.04l-.229 1.314h-.746l-.23 4.171 2.18-5.485h2.296l.23 5.485 1.319-4.171h-.746l.23-1.314h2.753l-.23 1.314h-.458l-2.066 5.886h-2.352l-.172-5.543-2.123 5.543h-2.467V52.1zm10.04 4.8l.918-5.029 1.32-1.085h3.958l.918 1.085-.918 5.029-1.32 1.086h-3.958l-.918-1.086zm3.901-.343l.402-.343.631-3.6-.287-.343H87.72l-.402.343-.631 3.6.287.343h1.491zm3.844.114h.631l.803-4.571h-.63l.229-1.314h5.622l.86 1.028-.344 1.943-.86.743.574.743-.287 1.543h.459l-.23 1.314h-1.778l-.517-.629.345-1.885-.23-.286h-1.72l-.288 1.486h.689l-.23 1.314H92.08l.23-1.429zm4.877-2.8l.344-.285.23-1.143-.23-.286h-1.721l-.344 1.772h1.72v-.058zm7.228 2.8h.804l-.402-1.885-1.32 1.371-.057.514h.516l-.23 1.315h-3.154l.229-1.315h.631l.803-4.571h-.63l.229-1.314h3.212l-.23 1.314h-.573l-.401 2.171 1.893-2.171h-.574l.23-1.314h3.327l-.23 1.314h-.688l-1.434 1.543.803 3.028h.631l-.23 1.315h-3.384l.23-1.315zM118.872 49.357h-.517v-2h-.745v-.4h2.008v.4h-.746v2zm3.327 0h-.459V47.3l-.459 2.057h-.516l-.402-2.057v2.057h-.516v-2.4h.746l.459 1.886.401-1.886h.746v2.4z"/></g></svg>