<svg width="61" height="60" viewBox="0 0 61 60" xmlns="http://www.w3.org/2000/svg"><g fill="#1C453B" fill-rule="evenodd"><path d="M55.91 44.423C50.862 53.703 41.049 60 29.768 60 13.327 60 0 46.63 0 30.138 0 13.646 13.328.275 29.767.275c16.44 0 29.767 13.371 29.767 29.863 0 4.35-.929 8.483-2.596 12.21l-.83-12.326h-7.73l-.913 3.29h1.199l-3.817 6.18-.535-9.47H36.47l-.891 3.276 1.196.014-5.12 7.933-4.218-.017c-.442 0-2.145-.417-2.145-2.572 0-2.156 2.009-5.284 4.052-5.284l.856.02-.445 1.634h3.754l1.35-5.004L29.074 30c-3.598 0-6.506 2.642-7.425 5.353l1.499-5.314-5.144-.017-.908 3.29 1.331-.005-1.34 4.82-3.366-8.088H8.9l-.905 3.276h1.322L6.33 44.423h3.855L12.05 37.5l2.805 6.923 4.29-.001 1.963-7.055a9.944 9.944 0 0 0-.002 3.237c.378 2.312 2.58 3.818 4.986 3.818l7.785.001 1.337-2.066h5.493l.111 2.044h4.87l1.239-2.044h5.617l.22 2.066h3.147zm-6.532-5.565l2.981-4.61.15 4.61h-3.131zm-11.95.062l2.985-4.626.159 4.626h-3.144zM58.223 46.908h.457l.69 1.154h.445l-.745-1.173c.385-.048.68-.256.68-.732 0-.524-.306-.757-.926-.757h-.997v2.662h.396v-2.32h.54c.277 0 .572.061.572.39 0 .41-.3.434-.637.434h-.475v.342zm.482 2.13A2.286 2.286 0 0 0 61 46.725a2.284 2.284 0 0 0-2.295-2.302c-1.251 0-2.309.977-2.309 2.302a2.289 2.289 0 0 0 2.309 2.313zm-1.852-2.313c0-1.092.81-1.917 1.852-1.917 1.026 0 1.838.825 1.838 1.917 0 1.11-.812 1.929-1.838 1.929-1.041 0-1.852-.818-1.852-1.93z"/></g></svg>