<svg width="129" height="48" viewBox="0 0 129 48" xmlns="http://www.w3.org/2000/svg"><g fill="#1C453B" fill-rule="evenodd"><path d="M21.937 18.211h7.357v-5.228h-7.357v5.228zm7.748 2.381H19.559v-9.99h10.126c1.095 0 1.987.893 1.987 1.99v6.012a1.99 1.99 0 0 1-1.987 1.988zM21.937 34.81h7.787v-6.285h-7.787v6.286zm8.18 2.382H19.559V26.144h10.558c1.094 0 1.985.892 1.985 1.988v7.069a1.99 1.99 0 0 1-1.985 1.99zM76.088 35.632h-5.577V.144H49.483v12.074h5.576v23.414h-5.576v12.074h26.605V35.632M124.712 16.353v-4.171c0-6.646-5.387-12.035-12.022-12.035H89.514c-6.638 0-12.023 5.389-12.023 12.035v23.492c0 6.646 5.385 12.032 12.023 12.032h23.176c6.635 0 12.022-5.386 12.022-12.032v-16.05H105.16v8.606h4.059v5.808c0 .876-.708 1.584-1.582 1.584h-13.07c-.875 0-1.582-.708-1.582-1.584V13.794c0-.875.707-1.585 1.581-1.585h13.071c.874 0 1.582.71 1.582 1.585v2.56h15.494"/><path d="M34.44.144H0V12.22h5.577v23.415H0v12.074h35.706c6.831 0 12.374-5.553 12.374-12.39 0-5.678-3.82-10.456-9.023-11.922v-.072c4.327-1.83 7.366-6.116 7.366-11.114 0-6.64-5.36-12.029-11.983-12.06V.143zm-1.27 2.38l1.26.007c5.302.026 9.616 4.368 9.616 9.68 0 8.442-8.097 10.52-8.097 10.52v1.258s9.753 2.155 9.753 11.33c0 5.519-4.485 10.009-9.996 10.009H2.378v-7.313h5.577V9.84H2.378V2.525H33.17zM126.642 45.674c.304 0 .476-.104.476-.368 0-.253-.172-.356-.482-.356h-.407v.724h.413zm-.866-1.126h.889c.568 0 .9.247.9.735 0 .38-.195.58-.487.678l.522.993h-.488l-.482-.936h-.401v.936h-.453v-2.406zm2.673 1.252c0-1.051-.798-1.878-1.836-1.878-1.044 0-1.83.815-1.83 1.867 0 1.05.797 1.878 1.842 1.878 1.038 0 1.824-.816 1.824-1.867zm-4.027 0c0-1.235.964-2.211 2.203-2.211 1.233 0 2.185.965 2.185 2.2A2.183 2.183 0 0 1 126.613 48c-1.239 0-2.191-.965-2.191-2.2z"/></g></svg>