<svg width="167" height="36" viewBox="0 0 167 36" xmlns="http://www.w3.org/2000/svg"><g fill-rule="nonzero" fill="#18453B"><path d="M2.592 25.374v6.472c0 1.08.351 2.611 2.252 2.611 1.74 0 2.369-1.206 2.369-2.734l-.03-6.35a.756.756 0 0 0-.394-.697h1.696c-.22.125-.38.342-.38.698L8.06 31.69c0 2.626-1.477 3.646-3.466 3.646-1.71 0-3.89-.803-3.89-3.539v-6.424c0-.355-.234-.573-.467-.698h2.807c-.234.125-.453.342-.453.698zM27.304 25.374c0-.355-.147-.573-.38-.698h1.623c-.22.125-.38.342-.38.698v10.241s-7.02-8.743-7.02-8.867v7.74c0 .34.162.556.41.695h-1.624c.22-.14.381-.355.381-.696v-8.249c0-.603.015-.618-.263-.974a2.46 2.46 0 0 0-.658-.588h2.516l5.395 6.799v-6.101zM42.832 24.676c-.249.125-.38.342-.38.698v9.113c0 .34.13.557.38.696h-2.647c.234-.14.38-.355.38-.696v-9.113c0-.355-.146-.573-.38-.698h2.647zM60.656 25.45c.132-.402.073-.618-.307-.774h1.784c-.38.264-.409.372-.555.743-.25.602-3.773 10.088-3.773 10.088s-3.816-9.516-4.094-10.088c-.175-.31-.351-.556-.79-.743h3.232c-.38.155-.41.48-.308.852.03.138 2.472 6.487 2.472 6.487s2.325-6.456 2.34-6.565zM78.407 26.037c-.277-.402-.584-.525-1.14-.556-.439-.03-2.486-.03-2.486-.03v3.553h2.208c.205 0 .453-.249.526-.434v1.638c-.073-.217-.321-.448-.526-.448H74.78v4.541c.293.046 1.184.109 1.901.077 1.272-.031 1.857 0 2.398-.973l-.306 1.777h-6.288c.25-.155.439-.325.439-.696v-9.114c0-.355-.205-.572-.439-.697h5.879l.042 1.362zM94.434 29.853c.994.108 1.432.818 1.651 1.16 0 0 1.756 2.934 2.268 3.552.277.37.935.618.935.618l-1.902.032c-.555 0-1.037-.355-1.3-.726-.658-.974-1.3-2.101-1.828-2.965-.38-.618-.717-1.283-1.346-1.283-.174 0-.643.032-.643.032v4.217c0 .34.161.556.41.696h-2.646c.233-.14.38-.355.38-.696v-9.114c0-.355-.146-.572-.38-.697h3.158c3.027 0 3.714 1.562 3.714 2.596 0 1.666-1.433 2.5-2.471 2.578zm-2.165-4.403v4.032s.41.032.659.032c.994 0 2.047-.588 2.047-2.147 0-.71-.41-1.947-1.856-1.947-.44 0-.85.03-.85.03zM115.329 32.092c0 1.932-1.608 3.245-3.406 3.245-1.332 0-2.296-.479-2.808-.742l-.072-2.611c.276 1.097 1.154 2.55 2.674 2.55 1.45 0 1.887-1.097 1.887-1.854 0-1.484-1.272-1.685-2.603-2.442-1.346-.787-1.93-1.621-1.93-2.797 0-2.1 1.857-2.934 3.189-2.934.497 0 1.461.109 2.207.572l.073 2.286c-.204-.82-1.037-2.055-2.442-2.055-1.111 0-1.55.82-1.55 1.484 0 .941.629 1.297 2.005 1.96 1.358.681 2.776 1.192 2.776 3.338zM129.396 24.676c-.25.125-.38.342-.38.698v9.113c0 .34.131.557.38.696h-2.646c.233-.14.38-.355.38-.696v-9.113c0-.355-.146-.573-.38-.698h2.646zM145.276 25.45v9.037c0 .34.161.557.38.696h-2.617c.234-.14.38-.355.38-.696V25.45c-1.081 0-2.34.109-2.34.109-.35 0-.599.355-.73.617v-1.499h8.014v1.499c-.133-.261-.337-.586-.688-.617-.001 0-1.332-.109-2.4-.109zM166.842 24.676c-.454.156-.79.59-.965.943l-2.34 4.697v4.17c0 .34.277.557.512.697h-2.924c.22-.14.496-.325.496-.696v-4.11l-2.866-4.958c-.205-.371-.365-.526-.76-.744h3.304c-.365.156-.614.233-.233.96l2.06 3.8 1.93-3.986c.205-.34.102-.664-.306-.774l2.092.001zM0 18.824h166.537v1.128H0zM11.597.45h3.433c-.325.171-.528.473-.528.965v12.66c0 .47.203.772.528.964h-3.636c.326-.194.529-.493.529-.965V3.283c0-.258.04-.493.04-.493l-.183.493L6.906 15.34 1.99 3.626l-.142-.58v11.029c0 .472.224.772.569.964H.162c.305-.193.528-.492.528-.964V1.416C.69 1.008.365.621.04.451h3.574l4.062 9.848L11.597.45zM21.994.45c-.345.171-.528.473-.528.965v12.66c0 .47.183.772.528.964h-3.676c.325-.194.528-.493.528-.965V1.416c0-.493-.203-.795-.528-.965h3.676zM37.572 4.656c-1.24-2.983-3.616-3.282-4.59-3.282-3.473 0-5.444 2.681-5.444 6.135 0 2.94 1.402 6.566 5.585 6.566.955 0 3.25-.343 4.59-3.283.041-.085-.182 3.09-.182 3.09-1.686 1.01-3.494 1.373-5.16 1.373-4 0-7.555-2.896-7.555-7.466 0-3.754 2.64-7.573 7.799-7.573 1.665 0 3.189.343 4.773 1.116.001-.002.224 3.41.184 3.324zM49.472.45h3.676c-.346.171-.569.473-.569.965v12.66c0 .47.223.772.569.964h-3.676c.325-.194.528-.493.528-.965V7.51h-6.317v6.566c0 .472.183.773.529.965h-3.676c.325-.193.528-.493.528-.965V1.416c0-.493-.203-.795-.528-.965h3.676c-.346.171-.529.472-.529.965v5.042H50V1.416c0-.493-.202-.794-.528-.966zM60.093.45c-.345.171-.528.473-.528.965v12.66c0 .47.183.772.528.964h-3.677c.326-.194.528-.493.528-.965V1.416c0-.493-.202-.795-.528-.965h3.677zM75.548 1.33l.143 3.411c-1.036-2.918-3.616-3.368-4.57-3.368-3.453 0-5.443 2.682-5.443 6.136 0 2.94 1.38 6.566 5.585 6.566.427 0 1.625-.043 2.58-.709V9.633c0-.493-.204-.793-.529-.987h3.636c-.305.194-.528.494-.528.987v3.175c0 .43.223.815.325.88-1.707 1.009-4.59 1.566-6.215 1.566-4.042 0-7.616-2.897-7.616-7.466 0-3.755 2.66-7.573 7.86-7.573 1.665 0 3.168.386 4.772 1.115zM90.373 13.988c.203.45.345.687 1.015 1.052h-4.346c.528-.3.63-.6.487-1.052-.062-.215-.59-1.523-1.158-2.982h-4.976c-.61 1.459-1.097 2.725-1.138 2.96-.183.515-.08.815.468 1.073h-2.803c.569-.408.751-.643.955-1.051C79.263 13.173 84.605 0 84.605 0s5.403 13.173 5.768 13.988zm-4.468-4.097a604.343 604.343 0 0 1-2.072-5.256s-1.38 3.646-2.03 5.256h4.102zM102.883 1.416c0-.493-.203-.795-.528-.965h2.254c-.304.171-.528.472-.528.965V15.64s-9.75-12.144-9.75-12.315v10.75c0 .472.223.772.57.964h-2.255c.304-.193.528-.492.528-.964V2.618c0-.837.02-.858-.365-1.352a3.344 3.344 0 0 0-.915-.815h3.495l7.494 9.44V1.416zM121.26 10.749c0 2.682-2.232 4.506-4.732 4.506-1.848 0-3.188-.666-3.9-1.03l-.1-3.626c.385 1.523 1.604 3.54 3.716 3.54 2.009 0 2.62-1.524 2.62-2.575 0-2.06-1.768-2.339-3.616-3.39-1.868-1.093-2.68-2.252-2.68-3.882 0-2.918 2.58-4.077 4.426-4.077.691 0 2.033.15 3.067.794l.1 3.175c-.282-1.137-1.44-2.854-3.39-2.854-1.544 0-2.154 1.138-2.154 2.06 0 1.309.874 1.803 2.783 2.724 1.892.945 3.86 1.653 3.86 4.635zM129.367 1.524v12.55c0 .473.223.773.529.965h-3.637c.325-.193.528-.492.528-.964V1.524c-1.503 0-3.25.15-3.25.15-.487 0-.833.492-1.015.857V.45h11.13v2.08c-.182-.364-.466-.815-.954-.857 0 0-1.849-.15-3.331-.15zM144.232 13.988c.203.45.345.687 1.015 1.052h-4.346c.528-.3.63-.6.487-1.052-.062-.215-.59-1.523-1.158-2.982h-4.976c-.61 1.459-1.096 2.725-1.139 2.96-.183.515-.08.815.468 1.073h-2.803c.568-.408.751-.643.955-1.051.387-.815 5.728-13.988 5.728-13.988s5.403 13.173 5.769 13.988zm-4.47-4.097a641.674 641.674 0 0 1-2.07-5.256s-1.38 3.646-2.032 5.256h4.103zM150.55 1.524v12.55c0 .473.223.773.528.965h-3.637c.326-.193.529-.492.529-.964V1.524c-1.503 0-3.25.15-3.25.15-.486 0-.832.492-1.015.857V.45h11.13v2.08c-.182-.364-.467-.815-.955-.857 0 0-1.848-.15-3.33-.15zM165.252 2.339c-.384-.559-.81-.73-1.584-.774-.61-.042-3.453-.042-3.453-.042v4.934h3.068c.282 0 .628-.343.73-.601v2.275c-.102-.301-.448-.622-.73-.622h-3.068v6.307c.407.065 1.645.15 2.64.108 1.768-.043 2.58 0 3.33-1.352l-.426 2.467h-8.733c.346-.215.61-.45.61-.964V1.416c0-.493-.285-.795-.61-.965h8.165l.061 1.888z"/></g></svg>