<svg width="83" height="96" viewBox="0 0 83 96" xmlns="http://www.w3.org/2000/svg"><g fill="#1C453B" fill-rule="evenodd"><path d="M77.562 6.86s-7.42 15.993-7.487 15.959c-13.868-6.981-30.159-6.639-43.776 1.434-9.081 5.555-15.337 14.929-15.909 26.242-.452 8.94 2.372 15.876 1.965 23.004-.222 3.875-.942 6.347-2.708 9.625C7.378 86.91 4.66 90.192.12 90.445c1.01-1.261 8.018-4.72 5.262-20.602C4.29 63.546-4.36 47.93 4 28.351c7.635-17.877 40.663-39.057 73.562-21.492"/><path d="M39.719 38.206c4.277-1.543 9.068-1.57 13.611-.565 8.574 1.515 14.992 6.693 18.122 14.38 3.274 8.046 5.624 14.537 11.248 21.413.16.198-8.782-1.314-8.749-1.562 2.187-15.942-12.874-16.6-17.028-10.629 3.125 3.44 8.49 5.205 12.655 4.533-.883 15.833 3.53 30.2 3.28 30.167-3.589-.497-20.03-10.176-24.838-14.38-7.064 1.26-12.596 3.871-20.778 5.002-.25.035 1.502-6.039 1.25-9.066 0-8.328-6.378-16.133-1.865-26.362 2.705-6.135 6.786-10.66 13.092-12.931M45.636 33.403c.48.007 1.207.119 1.22.067.136-.55.583-4.497 3.946-7.377 3.74-3.203 8.657-2.886 8.606-2.915-4.898-1.499-9.947-1.605-13.433-1.296l-.339 11.521M14.479 47.77c-.745 4.745-.298 8.455.449 11.445.007.031-.141-3.976 2.16-6.256 2.006-1.988 4.56-2.376 5.467-2.345 0-.012.455-1.552.39-1.556L14.48 47.77M23.961 46.89c.247-.634.547-1.19.914-1.91l-8.703-3.377c-.541 1.085-.948 2.711-1.151 3.592l8.94 1.694M26.061 43.569c.024-.028 1.398-1.78 1.423-1.762l-7.975-5.999a15.988 15.988 0 0 0-2.05 3.423l8.602 4.338M29.03 40.302c.044-.045 1.773-1.612 1.773-1.612l-6.909-7.862c-1.559 1.354-2.032 1.964-2.981 3.118l8.117 6.356M32.618 37.575c.014.097 1.986-1.104 2.03-1.192l-5.133-9.35c-1.963.948-3.217 1.966-3.792 2.372l6.895 8.17M36.425 35.505c2.449-.833 2.439-.859 2.439-.813L35.95 24.186c-1.625.475-3.82 1.415-4.336 1.763l4.81 9.556M40.76 34.08c.088.045 2.209-.472 2.235-.474l.27-11.386c-.087.089-2.641.476-4.808 1.085l2.303 10.776"/><path d="M75.708 93.396h-.43v.728h.452c.1 0 .19-.032.265-.1a.331.331 0 0 0 .112-.261c0-.245-.144-.367-.399-.367zm.202.909l.399.808h-.245l-.382-.787h-.404v.787h-.234V93.2h.659c.197 0 .345.053.451.154a.52.52 0 0 1 .165.41c0 .27-.117.44-.409.542zm-.234-1.717a1.568 1.568 0 1 0 0 3.135 1.568 1.568 0 0 0 0-3.135zm0 3.355a1.777 1.777 0 0 1-1.785-1.787c0-.994.791-1.787 1.785-1.787.994 0 1.786.793 1.786 1.787 0 .994-.792 1.787-1.786 1.787z"/></g></svg>