<svg width="62" height="72" viewBox="0 0 62 72" xmlns="http://www.w3.org/2000/svg"><g fill="#FFFFFF" fill-rule="evenodd"><path d="M57.938 5.144s-5.542 11.996-5.593 11.97c-10.36-5.235-22.528-4.979-32.7 1.076C12.862 22.356 8.189 29.386 7.76 37.872c-.337 6.704 1.772 11.906 1.468 17.252-.166 2.907-.703 4.76-2.023 7.219-1.694 2.84-3.725 5.301-7.116 5.49.754-.945 5.99-3.539 3.93-15.45-.815-4.723-7.277-16.436-1.032-31.12C8.69 7.856 33.363-8.029 57.938 5.144"/><path d="M29.67 28.655c3.194-1.157 6.774-1.179 10.167-.424 6.405 1.136 11.199 5.02 13.537 10.785 2.445 6.034 4.201 10.902 8.402 16.06.12.148-6.56-.986-6.535-1.172 1.633-11.956-9.617-12.45-12.72-7.972 2.334 2.58 6.342 3.904 9.453 3.4-.66 11.875 2.636 22.65 2.45 22.625-2.68-.373-14.963-7.632-18.554-10.784-5.276.944-9.409 2.903-15.52 3.75-.188.027 1.121-4.528.933-6.8 0-6.244-4.764-12.099-1.393-19.77 2.02-4.601 5.07-7.995 9.78-9.698M34.09 25.053c.357.005.9.088.911.05.101-.413.435-3.373 2.947-5.533 2.794-2.402 6.467-2.164 6.43-2.187-3.66-1.124-7.431-1.203-10.035-.972l-.253 8.642M10.815 35.828c-.556 3.558-.222 6.341.336 8.583.006.023-.105-2.982 1.614-4.691 1.498-1.492 3.406-1.783 4.083-1.76 0-.009.34-1.163.292-1.166l-6.325-.966M17.899 35.167c.184-.475.408-.892.683-1.432l-6.502-2.533c-.404.814-.708 2.034-.86 2.695l6.679 1.27M19.468 32.677c.017-.02 1.044-1.335 1.062-1.322l-5.957-4.499a12 12 0 0 0-1.531 2.567l6.426 3.254M21.685 30.227c.033-.034 1.324-1.21 1.324-1.21l-5.16-5.896c-1.165 1.016-1.518 1.473-2.227 2.338l6.063 4.768M24.366 28.181c.01.073 1.483-.827 1.515-.894l-3.833-7.013c-1.467.712-2.404 1.475-2.833 1.78l5.15 6.127M27.209 26.629c1.83-.625 1.822-.644 1.822-.61l-2.176-7.88c-1.214.357-2.853 1.062-3.239 1.322l3.593 7.168M30.447 25.56c.066.034 1.65-.354 1.67-.355l.202-8.54c-.066.067-1.973.357-3.592.814l1.72 8.081"/><path d="M56.553 70.047h-.321v.546h.337a.281.281 0 0 0 .198-.076.249.249 0 0 0 .084-.195c0-.184-.107-.275-.298-.275zm.151.681l.298.607h-.183l-.286-.59h-.301v.59h-.175v-1.436h.492c.147 0 .258.04.337.116a.39.39 0 0 1 .123.307c0 .203-.087.33-.305.406zm-.175-1.287c-.647 0-1.17.526-1.17 1.176 0 .65.523 1.176 1.17 1.176.647 0 1.171-.526 1.171-1.176 0-.65-.524-1.176-1.17-1.176zm0 2.516a1.33 1.33 0 0 1-1.334-1.34c0-.746.592-1.34 1.334-1.34a1.33 1.33 0 0 1 1.334 1.34 1.33 1.33 0 0 1-1.334 1.34z"/></g></svg>