<svg width="296" height="36" viewBox="0 0 296 36" xmlns="http://www.w3.org/2000/svg"><g fill="#FFFFFF" fill-rule="evenodd"><path d="M208.662 11.937l-.014-7.467L203.744.8h-12.83l-4.903 3.858v12.675l3.918 3.706 11.082-.009v6.924h-7.313V23.64l-7.687-.01v7.549l5.058 4.004h12.624l4.955-3.905V18.05l-3.918-3.707-11.032-.016v-4.218l-5.78-2.314h13.093v4.145l7.651-.003M53.112.709l-3.94 3.954v26.564l4.064 3.956h12.593l3.96-3.86v-10.31l-7.583-.042v7.913h-5.45V8.747l-5.578-1.641h11.028v6.571l7.583-.032V4.002L65.48.709H53.112M95.186.709v34.474h7.634V.712l-2.71-.003h-4.924M39.371.709v34.474h7.639V.712L44.299.709h-4.928M126.207 11.027l-.02-7.244-4.834-3.074h-12.091l-4.286 4.24v26.329l4.955 3.905h11.45l4.826-3.731V15.164h-11.658v6.302h4.122v7.564h-6.109l-.075-20.135-5.277-2.033h11.461v4.169l7.536-.004M21.174 13.385l-.714 5.911-.66-5.911L15.727.709H.73v1.472l3.012 2.143v27.244L.73 33.713v1.47h10.673V15.894l-.259-7.445 1.325 7.445 8.068 19.224 7.868-19.224 1.424-7.445-.305 7.445v19.289h7.687V.709H25.197l-4.023 12.676M136.08 21.756l1.666-14.41 1.416.01 2.264 14.4h-5.345zM167.744.701h-2.341v1.4l2.34 1.667v14.967l.968 7.665-1.984-7.463L160.062.694h-9.705V.7h-2.476v1.4l2.476 1.76v26.984L144.483.71h-15.32V2.18l3.189 2.268-5.99 30.734h8.196l1.22-6.933h6.006l1.223 6.933h8.193v-.01l1.262.01h5.672V23.842l-1.207-15.763 2.27 8.599 6.669 18.505h9.604V.693h-7.727v.008zM85.444.786v12.376h-5.907V.709h-9.54v1.472l1.952 1.389v31.613h7.588V20.484h5.907v14.699h7.584L92.982.755l-7.538.031M246.01.709h-35.472v10.393h1.192l2.105-3.41h2.913v24.676l-1.904 1.345v1.47h11.393v-1.47l-1.906-1.345V7.63l16.266.018 2.358 14.11h-5.341l1.33-11.813-6.188-.029-4.87 25.268h8.196l1.223-6.933h6.01l1.222 6.933h8.193L246.01.71M274.943 28.102v-7.835h9.57v-6.129h-9.57v-4.131l-7.668.002.03 25.174 21.731.007v-1.469l-3.406-5.619h-10.687"/><path d="M249.965.709v6.983h.001v3.41h1.194l2.102-3.41h2.915v24.676l-1.902 1.345v1.47h11.395v-1.47l-1.904-1.345V7.692h21.914l3.356-5.511V.709h-39.071M293.16 31.63h-.603v1.018h.633c.14 0 .268-.044.372-.14a.464.464 0 0 0 .157-.366c0-.34-.203-.512-.56-.512zm.283 1.271l.56 1.13h-.344l-.536-1.1h-.566v1.1h-.33v-2.676h.924c.278 0 .485.074.633.216.158.14.232.326.232.571 0 .378-.164.618-.573.76zm-.33-2.402a2.196 2.196 0 0 0-2.197 2.193c0 1.212.984 2.193 2.198 2.193s2.199-.981 2.199-2.193a2.196 2.196 0 0 0-2.2-2.193zm0 4.691a2.488 2.488 0 0 1-2.503-2.498c0-1.39 1.111-2.496 2.504-2.496a2.486 2.486 0 0 1 2.504 2.496 2.488 2.488 0 0 1-2.504 2.498z"/></g></svg>